# Alias OBJ Model File
# Exported from SketchUp, (c) 2000-2012 Trimble Navigation Limited
# File units = inches

mtllib Stackof20s.mtl

g Mesh1 _5000_Stack_of__20_Bills1 Model

usemtl M_50s20
v 80.5236 -1.1875 -46.5281
vt -0.991672 28.9811
vn 0 -1 -0
v 77.9136 -1.1875 -40.3881
vt -0.00699605 29.4843
v 77.9136 -1.1875 -46.5281
vt -0.998668 29.4655
f 1/1/1 2/2/1 3/3/1

v 80.5236 -1.1875 -40.3881
vt 1.77636e-15 29
f 2/2/1 1/1/1 4/4/1

usemtl cash_money_pile_stack_dollars_benjamins2_
vt 1 0
vn 1 0 -0
v 80.5236 -0.296875 -40.3881
vt 0 1
vt 0 0
f 1/5/2 5/6/2 4/7/2

v 80.5236 -0.296875 -46.5281
vt 1 1
f 5/6/2 1/5/2 6/8/2

usemtl cash_money_pile_stack_dollars_benjamins
vt -0.821776 -0.43435
vn 0 0 -1
v 77.9136 -0.296875 -46.5281
vt -0.242605 -0.251302
vt -0.817936 -0.240171
f 1/9/3 7/10/3 6/11/3

vt -0.246446 -0.445482
f 7/10/3 1/9/3 3/12/3

usemtl cash_money_pile_stack_dollars_benjamins1_
vn -1 -7.97802e-15 1.15724e-15
f 2/5/4 7/6/4 3/7/4

v 77.9136 -0.296875 -40.3881
f 7/6/4 2/5/4 8/8/4

usemtl cash_money_pile_stack_dollars_benjamins
vt 1.17831 -0.457584
vn 0 0 1
vt 1.763 -0.249977
vt 1.17514 -0.259172
f 2/13/5 5/14/5 8/15/5

vt 1.76618 -0.448388
f 5/14/5 2/13/5 4/16/5

usemtl M_50s20
vt 0.999773 -0.48931
vn -2.29154e-31 1 -4.33963e-16
vt -0.0018637 0.00061194
vt -0.0020905 -0.488698
f 6/17/6 8/18/6 5/19/6

f 8/18/6 6/17/6 7/5/6

g Mesh2 _5000_Stack_of__20_Bills1 Model

l 3 1

