# Blender v2.78 (sub 0) OBJ File: 'CHAHIN_ROLL_OF_TOILETTE_PAPER.blend'
# www.blender.org
mtllib CHAHIN_ROLL_OF_TOILET_PAPER.mtl
o Cube_Cube.001
v -0.448363 -0.356763 0.356763
v -0.448363 0.356763 0.356763
v -0.448363 -0.356763 -0.356763
v -0.448363 0.356763 -0.356763
v 0.448363 -0.356763 0.356763
v 0.448363 0.356763 0.356763
v 0.448363 -0.356763 -0.356763
v 0.448363 0.356763 -0.356763
v -0.448363 -0.121807 -0.121807
v -0.448363 -0.121807 0.121807
v -0.448363 0.121807 0.121807
v -0.448363 0.121807 -0.121807
v 0.448363 0.121807 -0.121807
v 0.448363 -0.121807 -0.121807
v 0.448363 -0.121807 0.121807
v 0.448363 0.121807 0.121807
v -0.448363 -0.092660 -0.092660
v -0.448363 -0.092660 0.092660
v -0.448363 0.092660 0.092660
v -0.448363 0.092660 -0.092660
v 0.448363 0.092660 -0.092660
v 0.448363 -0.092660 -0.092660
v 0.448363 -0.092660 0.092660
v 0.448363 0.092660 0.092660
v -0.448363 0.486533 0.000000
v 0.448363 0.486533 0.000000
v -0.448363 0.166114 0.000000
v 0.448363 0.166114 0.000000
v -0.448363 0.126364 0.000000
v 0.448363 0.126364 0.000000
v -0.448363 -0.486533 0.000000
v 0.448363 -0.486533 0.000000
v -0.448363 -0.166114 0.000000
v 0.448363 -0.166114 0.000000
v -0.448363 -0.126364 0.000000
v 0.448363 -0.126364 0.000000
v -0.448363 -0.000000 -0.486533
v 0.448363 -0.000000 -0.486533
v -0.448363 -0.000000 -0.166114
v 0.448363 -0.000000 -0.166114
v -0.448363 -0.000000 -0.126364
v 0.448363 -0.000000 -0.126364
v -0.448363 -0.000000 0.486533
v 0.448363 -0.000000 0.486533
v -0.448363 -0.000000 0.166114
v 0.448363 -0.000000 0.166114
v -0.448363 -0.000000 0.126364
v 0.448363 -0.000000 0.126364
v -0.448363 -0.000000 0.486533
v 0.448363 -0.000000 0.486533
v -0.448363 -0.439924 0.723362
v 0.448363 -0.439924 0.723362
v -0.448363 -0.225329 0.584216
v 0.448363 -0.225329 0.584216
v 0.448363 -0.006481 0.474445
v -0.448363 -0.006481 0.474445
v 0.448363 -0.446405 0.711274
v -0.448363 -0.446405 0.711274
v -0.448363 -0.231810 0.572128
v 0.448363 -0.231810 0.572128
vt 0.3136 0.0607
vt 0.4211 0.1048
vt 0.3098 0.1302
vt 0.2731 0.1151
vt 0.5615 0.1897
vt 0.4211 0.1897
vt 0.4211 0.0607
vt 0.5615 0.0607
vt 0.4211 0.1734
vt 0.3310 0.2260
vt 0.2790 0.1716
vt 0.3098 0.1536
vt 0.8094 0.0607
vt 0.9169 0.0607
vt 0.9169 0.1897
vt 0.8094 0.1897
vt 0.5615 0.3187
vt 0.5615 0.1897
vt 0.6690 0.1897
vt 0.6690 0.3187
vt 0.5615 0.3187
vt 0.5615 0.4476
vt 0.4211 0.4476
vt 0.4211 0.3187
vt 0.6670 0.8142
vt 0.7393 0.7733
vt 0.7545 0.7887
vt 0.6994 0.8198
vt 0.7533 0.9020
vt 0.6670 0.8677
vt 0.6994 0.8605
vt 0.7651 0.8866
vt 0.1906 0.3913
vt 0.0831 0.3472
vt 0.1944 0.3218
vt 0.2311 0.3369
vt 0.3136 0.2260
vt 0.4211 0.2701
vt 0.3098 0.2955
vt 0.2731 0.2804
vt 0.1906 0.2260
vt 0.0831 0.1819
vt 0.1944 0.1565
vt 0.2311 0.1716
vt 0.0831 0.1133
vt 0.1732 0.0607
vt 0.2252 0.1151
vt 0.1944 0.1331
vt 0.0831 0.2786
vt 0.1732 0.2260
vt 0.2252 0.2804
vt 0.1944 0.2984
vt 0.4211 0.3387
vt 0.3310 0.3913
vt 0.2790 0.3369
vt 0.3098 0.3189
vt 0.6013 0.6446
vt 0.6013 0.9387
vt 0.5157 0.9387
vt 0.5157 0.6446
vt 0.4300 0.9387
vt 0.4300 0.6446
vt 0.5157 0.6446
vt 0.5157 0.9387
vt 0.6670 0.7324
vt 0.6670 0.6789
vt 0.6994 0.6861
vt 0.6994 0.7268
vt 0.9382 0.6856
vt 0.9382 0.7390
vt 0.9058 0.7318
vt 0.9058 0.6912
vt 0.9382 0.8611
vt 0.8659 0.9020
vt 0.8507 0.8866
vt 0.9058 0.8555
vt 0.8519 0.7733
vt 0.9382 0.8076
vt 0.9058 0.8148
vt 0.8401 0.7887
vt 0.8519 0.7733
vt 0.7393 0.7733
vt 0.7545 0.7579
vt 0.8401 0.7579
vt 0.7533 0.6446
vt 0.8659 0.6446
vt 0.8507 0.6600
vt 0.7651 0.6600
vt 0.1274 0.9387
vt 0.1274 0.6446
vt 0.2131 0.6446
vt 0.2131 0.9387
vt 0.2787 0.9387
vt 0.2787 0.6446
vt 0.3644 0.6446
vt 0.3644 0.9387
vt 0.6670 0.6446
vt 0.6670 0.9387
vt 0.6690 0.3187
vt 0.6690 0.4476
vt 0.4211 0.3187
vt 0.4211 0.1897
vt 0.6690 0.1897
vt 0.6690 0.0607
vt 0.0618 0.9387
vt 0.0618 0.6446
vt 0.6690 0.0607
vt 0.6690 0.1897
vt 0.8200 0.3187
vt 0.7445 0.3187
vt 0.7445 0.1897
vt 0.8200 0.1897
vt 0.8047 0.4476
vt 0.7388 0.4476
vt 0.7388 0.3187
vt 0.8047 0.3187
vt 0.6690 0.3187
vt 0.6690 0.1897
vt 0.7445 0.1897
vt 0.7445 0.3187
vt 0.6728 0.4476
vt 0.6728 0.3187
vt 0.7388 0.3187
vt 0.7388 0.4476
vt 0.6690 0.4476
vt 0.6690 0.3187
vt 0.8302 0.3187
vt 0.8225 0.3629
vt 0.8175 0.3629
vt 0.8251 0.3187
vt 0.8302 0.4090
vt 0.8251 0.4090
vt 0.8237 0.1897
vt 0.8237 0.3187
vt 0.8200 0.3187
vt 0.8200 0.1897
vt 0.8175 0.3187
vt 0.8098 0.3647
vt 0.8047 0.3647
vt 0.8124 0.3187
vt 0.8175 0.4090
vt 0.8124 0.4090
vn 1.0000 0.0000 0.0000
vn 0.0000 0.3418 -0.9398
vn 0.0000 0.3418 0.9398
vn 0.0000 -0.9398 0.3418
vn 0.0000 0.9398 0.3418
vn -1.0000 -0.0000 0.0000
vn 0.0000 -0.9398 -0.3418
vn 0.0000 -0.3418 0.9398
vn 0.0000 0.9398 -0.3418
vn 0.0000 -0.3418 -0.9398
vn 0.0000 0.5441 0.8391
vn 0.0000 0.3977 0.9175
vn 0.0000 -0.5441 -0.8391
vn 0.0000 -0.3977 -0.9175
vn 0.0000 0.8813 -0.4725
vn 0.0000 -0.8813 0.4725
usemtl Material.000
s off
f 38/1/1 8/2/1 13/3/1 40/4/1
f 37/5/2 4/6/2 8/7/2 38/8/2
f 26/9/1 6/10/1 16/11/1 28/12/1
f 44/13/3 6/14/3 2/15/3 43/16/3
f 31/17/4 32/18/4 5/19/4 1/20/4
f 26/21/5 25/22/5 2/23/5 6/24/5
f 34/25/1 14/26/1 22/27/1 36/28/1
f 46/29/1 15/30/1 23/31/1 48/32/1
f 25/33/6 4/34/6 12/35/6 27/36/6
f 31/37/6 1/38/6 10/39/6 33/40/6
f 44/41/1 5/42/1 15/43/1 46/44/1
f 32/45/1 7/46/1 14/47/1 34/48/1
f 37/49/6 3/50/6 9/51/6 39/52/6
f 43/53/6 2/54/6 11/55/6 45/56/6
f 29/57/7 30/58/7 24/59/7 19/60/7
f 41/61/8 42/62/8 21/63/8 20/64/8
f 39/65/6 9/66/6 17/67/6 41/68/6
f 45/69/6 11/70/6 19/71/6 47/72/6
f 28/73/1 16/74/1 24/75/1 30/76/1
f 40/77/1 13/78/1 21/79/1 42/80/1
f 27/81/6 12/82/6 20/83/6 29/84/6
f 33/85/6 10/86/6 18/87/6 35/88/6
f 47/89/2 48/90/2 23/91/2 18/92/2
f 35/93/5 36/94/5 22/95/5 17/96/5
f 11/70/6 27/81/6 29/84/6 19/71/6
f 13/78/1 28/73/1 30/76/1 21/79/1
f 20/97/4 21/98/4 30/58/4 29/57/4
f 2/54/6 25/33/6 27/36/6 11/55/6
f 8/99/9 4/100/9 25/22/9 26/21/9
f 8/2/1 26/9/1 28/12/1 13/3/1
f 18/92/9 23/91/9 36/94/9 35/93/9
f 9/66/6 33/85/6 35/88/6 17/67/6
f 5/42/1 32/45/1 34/48/1 15/43/1
f 3/50/6 31/37/6 33/40/6 9/51/6
f 15/30/1 34/25/1 36/28/1 23/31/1
f 3/101/7 7/102/7 32/18/7 31/17/7
f 14/26/1 40/77/1 42/80/1 22/27/1
f 12/82/6 39/65/6 41/68/6 20/83/6
f 17/96/3 22/95/3 42/62/3 41/61/3
f 4/34/6 37/49/6 39/52/6 12/35/6
f 3/103/10 37/5/10 38/8/10 7/104/10
f 7/46/1 38/1/1 40/4/1 14/47/1
f 19/105/10 24/106/10 48/90/10 47/89/10
f 10/86/6 45/69/6 47/72/6 18/87/6
f 1/38/6 43/53/6 45/56/6 10/39/6
f 6/10/1 44/41/1 46/44/1 16/11/1
f 16/74/1 46/29/1 48/32/1 24/75/1
f 5/107/8 44/13/8 43/16/8 1/108/8
f 53/109/11 51/110/11 52/111/11 54/112/11
f 49/113/12 53/114/12 54/115/12 50/116/12
f 59/117/13 60/118/13 57/119/13 58/120/13
f 56/121/14 55/122/14 60/123/14 59/124/14
f 49/125/15 50/126/15 55/122/15 56/121/15
f 50/127/1 54/128/1 60/129/1 55/130/1
f 54/128/1 52/131/1 57/132/1 60/129/1
f 52/133/16 51/134/16 58/135/16 57/136/16
f 51/137/6 53/138/6 59/139/6 58/140/6
f 53/138/6 49/141/6 56/142/6 59/139/6
